HIERARCHY
ROOT Hips
{
	OFFSET 0.0000 0.0000 0.0000
	CHANNELS 6 Xposition Yposition Zposition Zrotation Xrotation Yrotation
	JOINT Ab
	{
		OFFSET -0.0000 8.0846 -0.0000
		CHANNELS 3 Zrotation Xrotation Yrotation
		JOINT Chest
		{
			OFFSET -0.0000 25.0068 -0.0000
			CHANNELS 3 Zrotation Xrotation Yrotation
			JOINT Neck
			{
				OFFSET -0.0000 25.0068 0.0000
				CHANNELS 3 Zrotation Xrotation Yrotation
				JOINT Head
				{
					OFFSET -0.0000 10.7556 0.0000
					CHANNELS 3 Zrotation Xrotation Yrotation
					End Site
					{
						OFFSET -0.0000 16.6222 0.0000
					}
				}
			}
			JOINT LeftCollar
			{
				OFFSET -0.0000 25.0068 0.0000
				CHANNELS 3 Zrotation Xrotation Yrotation
				JOINT LeftShoulder
				{
					OFFSET 19.5556 -0.0000 0.0000
					CHANNELS 3 Zrotation Xrotation Yrotation
					JOINT LeftElbow
					{
						OFFSET 27.1828 0.0000 0.0000
						CHANNELS 3 Zrotation Xrotation Yrotation
						JOINT LeftWrist
						{
							OFFSET 23.3157 0.0000 0.0000
							CHANNELS 3 Zrotation Xrotation Yrotation
							End Site
							{
								OFFSET 0.0000 -14.6667 0.0000
							}
						}
					}
				}
			}
			JOINT RightCollar
			{
				OFFSET -0.0000 25.0068 0.0000
				CHANNELS 3 Zrotation Xrotation Yrotation
				JOINT RightShoulder
				{
					OFFSET -19.5556 0.0000 0.0000
					CHANNELS 3 Zrotation Xrotation Yrotation
					JOINT RightElbow
					{
						OFFSET -27.1828 0.0000 0.0000
						CHANNELS 3 Zrotation Xrotation Yrotation
						JOINT RightWrist
						{
							OFFSET -23.3157 0.0000 0.0000
							CHANNELS 3 Zrotation Xrotation Yrotation
							End Site
							{
								OFFSET -0.0000 -14.6667 0.0000
							}
						}
					}
				}
			}
		}
	}
	JOINT LeftHip
	{
		OFFSET 11.7333 0.0000 0.0000
		CHANNELS 3 Zrotation Xrotation Yrotation
		JOINT LeftKnee
		{
			OFFSET -0.0000 -40.8688 0.0000
			CHANNELS 3 Zrotation Xrotation Yrotation
			JOINT LeftAnkle
			{
				OFFSET -0.0000 -44.4337 0.0000
				CHANNELS 3 Zrotation Xrotation Yrotation
				End Site
				{
					OFFSET -0.0000 -4.8889 16.6222
				}
			}
		}
	}
	JOINT RightHip
	{
		OFFSET -11.7333 0.0000 0.0000
		CHANNELS 3 Zrotation Xrotation Yrotation
		JOINT RightKnee
		{
			OFFSET -0.0000 -40.8688 0.0000
			CHANNELS 3 Zrotation Xrotation Yrotation
			JOINT RightAnkle
			{
				OFFSET -0.0000 -44.4337 0.0000
				CHANNELS 3 Zrotation Xrotation Yrotation
				End Site
				{
					OFFSET -0.0000 -4.8889 16.6222
				}
			}
		}
	}
}
MOTION
Frames: 22
Frame Time: 0.010000
0.1358 90.4363 116.5386 0.1751 351.4977 177.6873 2.2803 7.4764 0.9277 353.2510 3.6336 1.2886 1.1469 336.9407 359.9703 3.5667 8.3091 359.4719 343.7668 356.8373 21.9748 293.4552 52.1545 12.6301 36.1242 346.2370 319.4969 93.7204 356.4305 15.8958 20.0360 358.6335 352.4940 41.3472 55.1376 29.3467 324.0399 344.6789 45.7637 268.5239 347.3639 8.0612 1.3095 339.2698 356.3515 356.7218 18.6454 359.3368 347.3971 347.0912 21.3242 359.6408 346.3605 0.8093 359.0706 29.8081 4.1912 2.7969 350.3166 344.4670 
0.1065 90.3807 115.1950 0.4109 351.5923 178.0175 2.0254 7.2227 0.9634 353.7205 3.7891 1.2980 1.2225 337.0407 359.8051 3.3857 8.4488 359.2881 343.5888 356.7869 21.7441 293.1303 51.4218 12.7766 36.0740 346.3822 319.6312 94.2884 355.9815 15.5921 19.9093 358.6628 352.4683 41.1047 54.7311 29.5031 324.7288 344.9112 46.0214 269.0983 347.2434 8.5387 1.3266 339.3918 355.9360 356.8190 18.1104 359.6436 346.9781 346.7156 21.6548 359.7871 346.4050 0.4909 358.8686 31.2728 4.2895 3.7135 349.6653 344.6901 
0.0704 90.2066 113.8719 0.6838 351.8501 178.2726 1.8674 7.4130 1.0066 354.0576 3.4843 1.3083 1.2661 337.3746 359.6043 3.3265 8.4643 359.0766 343.4985 356.7748 21.7694 292.6344 52.2676 12.8531 36.9499 346.1175 320.7891 93.9723 355.6456 15.5267 19.8613 358.6898 352.6278 42.0723 54.0798 28.2324 325.5341 345.1318 46.5756 269.7859 347.3120 9.3851 1.4521 339.6013 355.6171 356.6915 18.1504 359.8648 345.7134 345.6330 24.3543 0.0420 346.3432 0.4438 358.6594 33.2729 4.4403 2.7330 349.2618 344.1233 
0.0407 89.9319 112.5752 0.9720 352.2606 178.6013 1.9102 7.7608 0.9003 354.1434 3.3403 1.2003 1.2941 337.5383 359.4304 3.4349 8.4317 358.9029 343.5248 356.7961 21.9467 292.2712 53.6478 12.4658 38.3054 345.9108 322.4031 93.5304 355.4089 15.7897 19.8547 358.6843 352.5955 42.3400 53.9145 27.8504 325.9489 345.2075 46.4500 270.6046 347.1855 9.9875 1.5602 339.8358 355.4465 356.4568 18.7427 359.8481 344.8098 344.6269 26.9903 0.3510 346.2767 0.5337 358.4952 35.5802 4.4822 1.3320 348.7318 343.3513 
-0.0219 89.5789 111.3117 1.0556 352.4330 178.6885 1.8296 7.8334 0.8472 354.0865 3.2504 1.1404 1.4531 337.6731 359.3949 3.5522 8.3549 358.8426 343.4774 356.7674 22.0726 292.2307 54.4177 11.8841 38.2977 346.4515 322.8227 96.9958 356.5429 17.6538 19.9092 358.6786 352.6821 42.4837 53.8318 27.5495 326.3476 345.4103 46.2147 270.8741 347.3257 10.2764 1.5200 339.8432 355.7579 356.3248 19.6326 359.6260 345.0267 344.6489 27.1174 0.5205 345.6653 0.9291 358.3331 38.3040 4.3527 0.3322 348.1665 342.8332 
-0.0582 89.1021 110.0510 1.2082 352.6738 178.8538 1.7533 7.9386 0.7698 354.1269 3.2085 1.0558 1.8399 337.5052 359.3016 3.1183 8.6476 358.6758 343.3632 356.7311 22.0189 292.5801 54.9509 11.0306 40.6321 345.8145 324.5069 93.1276 355.7961 16.1818 19.9915 358.6730 352.6234 42.6861 53.5111 27.1250 327.0172 345.8388 46.0360 270.3528 347.3158 10.7019 1.5103 339.9659 356.4429 356.3636 20.8322 358.6494 344.3375 344.8792 26.8579 0.7961 345.1083 1.4545 358.2547 41.1054 4.2660 359.6137 347.4421 342.3816 
-0.0957 88.6129 108.8414 1.5016 353.0441 178.9347 1.9676 8.0811 0.6174 354.0042 3.2106 0.9237 1.9723 337.7102 359.2517 3.3527 8.5185 358.6049 343.3000 356.7220 21.8073 292.6820 54.3410 10.7190 41.2051 346.0116 324.9791 93.3273 356.2444 15.8783 20.1022 358.6862 352.6663 42.4406 53.0738 27.1718 327.7379 346.2405 46.0200 270.0627 347.1676 11.2576 1.6414 340.3511 356.9199 356.4701 22.1166 357.7314 347.1206 346.3774 27.0531 1.1788 344.7892 1.6929 358.1322 43.6630 4.8164 359.1572 346.8286 341.8959 
-0.1586 88.1527 107.6474 1.7974 353.5475 178.7605 2.2612 8.2504 0.5147 353.7505 3.2371 0.8525 2.2941 337.8915 359.3216 3.5081 8.5580 358.6120 343.2983 356.7166 21.7972 292.6352 53.5364 10.8014 41.4574 346.1270 325.3382 93.7798 356.5567 15.3662 20.1833 358.7209 352.8501 41.9189 52.6399 27.5700 328.3903 346.5699 46.0605 270.3293 347.0351 11.7696 1.8191 341.0452 357.2560 356.4632 23.5408 356.8676 354.6382 349.3286 22.5438 1.5719 344.6530 1.8208 357.8914 46.1506 5.8577 359.2299 345.9681 341.4336 
-0.2564 87.6858 106.5275 1.8145 353.7868 178.5183 2.0914 8.2962 0.5239 353.7108 3.1024 0.8451 2.8039 338.0046 359.4218 3.4821 8.5584 358.6088 343.1952 356.7075 21.7664 292.7897 52.7060 10.7844 41.7695 346.2044 325.4981 93.7630 357.0082 15.0406 20.1784 358.7393 352.9258 41.9064 52.1745 27.5578 329.0290 346.8555 46.0726 270.5809 346.7841 12.4753 1.8039 341.5483 357.4151 356.0810 24.8048 356.5939 355.6351 348.1828 22.5038 1.6897 343.9486 1.8970 357.5603 49.0143 6.6118 359.0077 345.2317 341.2438 
-0.3480 87.2400 105.3936 1.7167 354.1352 178.0176 1.8106 8.3890 0.5515 353.6682 3.1383 0.8570 3.2421 338.0804 359.6363 3.6291 8.4560 358.7432 343.0818 356.6705 21.7035 293.0609 51.9806 10.5341 42.1775 346.1447 325.6424 93.6080 357.3554 15.0243 20.1882 358.7287 352.8681 41.4999 51.9144 27.9791 329.7676 347.2259 46.0038 270.5064 346.6028 13.4050 1.8224 342.3481 357.9040 355.6439 25.5812 356.5001 356.3702 347.2592 22.3489 1.7676 343.2011 2.3298 357.2865 52.1215 7.0517 359.2950 344.6201 341.4152 
-0.4651 86.8107 104.2993 1.4311 354.4314 177.7327 1.3385 8.4932 0.4764 353.7151 3.1852 0.7494 3.6296 338.1279 359.7963 3.6718 8.2136 358.8349 342.8688 356.6148 21.4963 293.4377 51.6311 10.1719 42.8453 346.0204 325.8657 93.1734 357.4111 15.3328 20.1196 358.7149 352.7042 41.7534 51.5870 27.7253 330.3748 347.4645 46.1639 270.4411 346.3847 14.3551 1.6487 343.0008 358.2051 355.1076 26.3623 356.5123 357.1143 346.4780 22.4534 1.5393 342.2979 2.5196 357.1231 55.2297 7.5349 357.5425 345.0992 340.9304 
-0.5932 86.4161 103.2285 1.0282 354.6778 177.5959 0.6749 8.6661 0.4325 353.8704 3.0952 0.6481 4.0255 338.0874 359.8881 3.5292 8.0869 358.8536 342.4703 356.5586 21.0909 294.3211 50.4566 9.6827 42.7508 346.1060 325.4508 93.2928 357.4941 14.8462 20.0820 358.6779 352.4473 42.2439 51.4311 27.1911 330.9128 347.6659 46.2692 270.1700 346.3258 15.0080 1.3174 343.4846 358.3042 354.5948 27.2042 356.5688 357.7218 345.3531 22.9082 1.1166 341.2700 2.5862 357.1546 58.4513 7.7986 356.2051 345.8775 340.8026 
-0.6954 86.0711 102.1656 0.5964 354.9129 177.5809 0.1294 8.8350 0.3249 353.7266 3.0610 0.4995 4.5803 337.9719 359.9314 3.3160 8.0125 358.7909 342.1475 356.5587 20.6442 295.1618 50.5408 8.8000 43.4151 345.8533 325.8349 92.8189 357.4304 14.7604 20.2535 358.6159 352.2162 43.5010 50.8677 25.9049 331.7102 348.0276 46.4604 269.8242 346.0323 15.8266 0.9492 344.0323 358.5266 354.2240 27.8660 356.9486 358.7851 344.7111 22.4559 0.6127 340.2112 2.6555 357.7144 61.5174 7.2583 357.7423 344.9790 341.3491 
-0.7908 85.7766 101.1361 0.2425 354.9819 177.8541 359.4321 8.8449 0.2342 354.1538 3.0551 0.3467 4.8042 337.9704 359.8787 3.0433 7.8162 358.7191 341.4487 356.4909 19.8097 296.3692 50.1547 7.6726 43.5074 345.8979 325.5296 93.2083 357.4690 14.7102 20.2326 358.5888 351.8482 44.9315 50.3969 24.3084 332.2940 348.2396 46.4499 269.3554 345.5102 16.5079 0.6449 344.5154 358.8724 353.9786 28.2984 356.4978 0.0020 344.1908 22.6920 0.0572 339.1005 2.4279 358.4173 64.0927 6.9806 358.2842 344.6458 340.8756 
-0.8560 85.4962 100.0500 359.9209 355.0199 178.2443 358.7924 8.7078 0.1047 354.5772 3.3401 0.1716 4.9197 337.8551 359.8102 2.8777 7.5755 358.6436 340.6259 356.4688 18.6725 298.1392 49.3594 5.9673 43.3742 345.9258 324.9325 93.5434 357.6857 14.3103 20.3379 358.5032 351.3560 46.2514 49.7357 22.7876 333.0032 348.6214 46.0321 268.8485 344.7667 17.0677 0.4125 345.0797 359.5016 353.8309 28.6077 355.7952 0.3838 343.5595 22.6193 359.5194 337.9945 2.3751 359.6395 66.2002 6.2368 358.3814 344.0510 340.4139 
-0.8927 85.2591 98.8976 359.7395 355.0604 178.7289 358.4931 8.5946 359.7589 354.8393 3.6410 359.8227 4.7642 337.7494 359.7588 3.0237 7.4138 358.6258 339.7968 356.5188 17.5475 300.3263 48.5662 3.6826 43.1936 345.8059 324.4608 93.7923 357.9344 13.5255 20.5485 358.4080 350.9734 47.7140 48.9793 20.8923 333.9461 349.2262 45.3419 267.4976 343.9117 17.7319 0.2822 345.8541 359.8915 353.5669 28.7350 355.4193 0.6598 342.9210 22.4658 359.1688 336.9141 2.4547 1.0705 67.8166 5.1539 357.3096 343.7512 340.0592 
-0.9266 85.0938 97.7146 359.7786 355.1076 179.2790 358.4179 8.3752 359.5591 355.0527 4.0731 359.6293 5.0436 337.7950 359.8313 2.6893 7.2024 358.6648 339.1198 356.6049 16.6931 302.8571 48.4550 0.7965 43.2242 345.6859 324.4835 94.3050 357.9308 13.0646 20.6805 358.3582 350.8334 49.6850 47.9026 18.4565 335.0579 349.8915 44.8833 266.0483 343.2136 18.7248 0.2098 346.7878 0.1047 353.6207 28.6172 354.9617 0.8318 342.3938 22.2914 359.0028 335.9215 2.4766 2.7765 68.8646 3.6808 356.5879 343.4051 339.6859 
-0.9441 84.9789 96.5667 359.9567 355.0373 179.8963 358.5931 8.2347 359.2661 355.1940 4.1862 359.3424 5.2126 338.0355 359.8070 2.3751 7.0177 358.6364 338.6083 356.7191 15.8777 305.4042 48.8140 357.7814 43.5107 345.5748 324.8745 94.3095 357.5168 12.8426 20.7981 358.2976 350.5401 51.7297 46.6687 15.7600 336.3003 350.5564 44.6578 264.7319 342.7541 19.7759 0.1556 347.5846 0.1575 353.9498 28.4151 354.6375 0.0089 341.8329 21.7175 358.9446 334.8084 2.4871 4.6402 69.4491 1.6512 357.1641 342.8261 339.6454 
-0.9602 84.8952 95.4267 0.1996 354.9345 180.5145 358.9792 8.2724 358.7997 355.2783 3.9187 358.8885 5.1538 338.3463 359.8574 2.2718 7.1172 358.7365 338.2166 356.8488 15.0798 307.4504 48.1797 355.2754 43.3675 345.6325 324.6694 94.4696 357.3749 12.4444 20.8862 358.2308 350.2428 53.5258 45.6558 13.0342 337.5717 351.1604 44.6204 263.7782 342.7091 20.4153 0.1716 348.4614 359.9675 354.2275 27.9623 354.4116 359.5788 341.4712 21.5681 358.9480 333.6314 2.4427 5.9411 69.7149 0.1073 357.6933 342.2996 339.6663 
-0.9594 84.8627 94.2594 0.4708 354.8387 181.0150 359.2526 8.3552 358.4074 355.4890 3.6150 358.4930 5.3872 338.4595 0.0612 1.8277 7.5327 358.9287 337.9677 356.9709 14.5718 309.2809 47.5470 352.7083 43.2884 345.5874 324.4664 94.3700 356.9731 11.7026 20.8246 358.1923 349.9693 55.2628 45.1497 10.4000 338.4778 351.4615 44.7458 263.6763 342.9011 20.6953 0.2430 349.4829 359.6763 354.5221 27.2367 354.2237 2.2209 341.8144 22.1996 359.0549 332.4559 2.5734 7.2154 69.5695 357.9717 357.8520 341.9360 340.2040 
-0.9405 84.8763 93.0801 0.7495 354.7673 181.5630 359.4412 8.4267 357.9416 355.9614 3.4151 358.0170 5.3493 338.5254 0.2719 1.6863 7.9486 359.1660 337.8441 357.0889 14.0884 310.8668 47.2964 350.1462 43.4394 345.4232 324.4124 94.2214 356.5535 10.8261 20.5813 358.1636 349.4898 56.5675 44.7653 8.1755 339.3241 351.7408 44.9426 264.0958 342.7273 20.8577 0.3051 350.5817 359.1465 354.7515 26.4044 354.1228 2.9467 341.7606 22.4574 359.2108 331.3191 2.5863 8.0142 69.0844 356.5294 357.1912 341.7258 340.1688 
-0.9166 84.9353 91.9067 0.9979 354.6740 182.1652 359.6336 8.5076 357.4042 356.3857 3.2167 357.4738 5.6412 338.6826 0.6378 1.2279 8.1562 359.5014 337.9094 357.2160 13.7355 312.4191 47.2052 347.6805 43.9506 345.1617 324.5848 93.5285 355.8932 10.2137 20.2818 358.1222 348.9938 57.6491 44.4613 6.1249 340.4087 352.1910 45.1722 264.2693 341.9954 21.9674 0.3443 351.6775 358.5177 354.9891 25.5257 354.0019 2.5618 341.5575 22.4140 359.2856 330.1743 2.4837 8.7818 68.4787 356.0382 356.3882 341.4072 339.2213 
